<svg xmlns="http://www.w3.org/2000/svg" xmlns:xlink="http://www.w3.org/1999/xlink" viewBox="0 0 586.39 625.24"><defs><style>.cls-1{fill:url(#linear-gradient);}.cls-2{fill:url(#linear-gradient-2);}.cls-3{fill:url(#linear-gradient-3);}.cls-4{fill:url(#linear-gradient-4);}.cls-5{fill:url(#linear-gradient-5);}.cls-6{fill:url(#linear-gradient-6);}.cls-7{fill:url(#linear-gradient-7);}</style><linearGradient id="linear-gradient" x1="293.19" y1="463.31" x2="293.19" y2="625.24" gradientUnits="userSpaceOnUse"><stop offset="0" stop-color="#f7a4f4"/><stop offset="0.07" stop-color="#d28ada"/><stop offset="0.15" stop-color="#a76cbc"/><stop offset="0.24" stop-color="#8553a3"/><stop offset="0.33" stop-color="#6a4090"/><stop offset="0.42" stop-color="#563383"/><stop offset="0.51" stop-color="#4b2b7b"/><stop offset="0.61" stop-color="#472878"/></linearGradient><linearGradient id="linear-gradient-2" x1="293.19" y1="275.59" x2="293.19" y2="546.5" gradientUnits="userSpaceOnUse"><stop offset="0" stop-color="#faa5f6"/><stop offset="0.03" stop-color="#dd91e2"/><stop offset="0.09" stop-color="#b675c6"/><stop offset="0.14" stop-color="#935dae"/><stop offset="0.2" stop-color="#774a9a"/><stop offset="0.27" stop-color="#623b8b"/><stop offset="0.34" stop-color="#533080"/><stop offset="0.42" stop-color="#4a2a7a"/><stop offset="0.54" stop-color="#472878"/></linearGradient><linearGradient id="linear-gradient-3" x1="293.27" y1="546.36" x2="293.27" y2="546.59" xlink:href="#linear-gradient-2"/><linearGradient id="linear-gradient-4" x1="293.13" y1="546.36" x2="293.13" y2="546.59" xlink:href="#linear-gradient-2"/><linearGradient id="linear-gradient-5" x1="293.19" x2="293.19" y2="295.94" gradientUnits="userSpaceOnUse"><stop offset="0" stop-color="#f8a7f6"/><stop offset="0.03" stop-color="#f1a2f1"/><stop offset="0.37" stop-color="#9661b0"/><stop offset="0.6" stop-color="#5d3888"/><stop offset="0.72" stop-color="#472878"/></linearGradient><linearGradient id="linear-gradient-6" x1="224.8" y1="9.99" x2="224.8" y2="67.36" gradientUnits="userSpaceOnUse"><stop offset="0" stop-color="#fba6f7"/><stop offset="0.14" stop-color="#d98edf"/><stop offset="0.49" stop-color="#8b58a8"/><stop offset="0.74" stop-color="#5a3585"/><stop offset="0.86" stop-color="#472878"/></linearGradient><linearGradient id="linear-gradient-7" x1="434.15" y1="78.41" x2="434.15" y2="135.78" xlink:href="#linear-gradient-6"/></defs><g id="Layer_2" data-name="Layer 2"><g id="Layer_1-2" data-name="Layer 1"><path class="cls-1" d="M581.72,513C361.45,522.67,311,607,304.24,622.88a3.87,3.87,0,0,1-3.81,2.35l-7.22-.33-7.28.33a3.91,3.91,0,0,1-3.8-2.35C275.46,607,225,522.67,4.69,513a4.86,4.86,0,0,1-3.33-8.21L42.05,464.8a4.84,4.84,0,0,1,4-1.45C67.77,466,231.91,489,293.21,586c61.25-97,225.38-120,247.06-122.69a4.78,4.78,0,0,1,4,1.45l40.74,39.95A4.87,4.87,0,0,1,581.72,513Z"/><path class="cls-2" d="M455.85,445.54c-31.07,29-69,35.77-91.9,48.34-29.24,16.06-67.44,49.66-70.64,52.48,0,0,0,.09-.09.14h-.05s0-.09-.09-.14c-3.19-2.82-41.4-36.42-70.64-52.48-22.9-12.57-60.83-19.38-91.9-48.34-29-27.32-39-60.45-32.81-95.56,3.1-17.6,10.89-34.17,23.24-47.12,9.2-9.72,22.43-19.72,39.8-23.8,56.32-13.28,108.65,13.24,120.53,52.14,30.08,102.23-94.44,108.52-82.14,44.73,0,0,4.18-15.86,18.07-13.79,4.74,1.73.28,5.77-1.22,11.68a12.73,12.73,0,0,0,.42,6.86c3.1,9.85,13.57,24.82,36.66,7.74a20.27,20.27,0,0,0,6.85-8.92c4.79-11.87,11.22-40.36-22.57-64-43.89-30.65-77.31-8.31-88.2.84-5.21,4.37-40.55,42.67-12.1,92.42a69.25,69.25,0,0,0,15.44,18.3c27.31,23.24,52.61,26.52,74,37.22,4.41,2.21,49.84,24.46,66.74,48.49,16.85-24,62.24-46.28,66.65-48.49,21.4-10.7,46.65-14,74-37.22a70.2,70.2,0,0,0,15.39-18.3c28.49-49.75-6.85-88.05-12.06-92.42-10.89-9.15-44.31-31.49-88.24-.84-33.79,23.61-27.32,52.1-22.58,64a20.9,20.9,0,0,0,6.9,8.92c23.05,17.08,33.52,2.11,36.66-7.74a12.25,12.25,0,0,0,.38-6.86c-1.46-5.91-6-9.95-1.22-11.68,13.89-2.07,18.11,13.79,18.11,13.79,12.3,63.79-112.22,57.5-82.13-44.73,11.87-38.9,64.16-65.42,120.48-52.14,17.41,4.08,30.6,14.08,39.85,23.8,12.29,12.95,20.09,29.52,23.23,47.12C494.9,385.09,484.81,418.22,455.85,445.54Z"/><path class="cls-3" d="M293.31,546.36v.23l-.09-.09S293.27,546.41,293.31,546.36Z"/><path class="cls-4" d="M293.17,546.5l-.09.09v-.23C293.13,546.41,293.13,546.45,293.17,546.5Z"/><path class="cls-5" d="M129.81,264.45a123.2,123.2,0,0,1,63.11-17.14,135.92,135.92,0,0,1,27.61,2.9c29.1,6.1,53.93,21.76,72.82,45.73,18.89-24,43.72-39.63,72.83-45.72a135.24,135.24,0,0,1,27.61-2.91,123.11,123.11,0,0,1,63.1,17.14,131.18,131.18,0,0,1,21.91,16.17c10.31-23.92,11.6-35.35,1.21-59.31-4.55-10.49-11-20.16-14.77-31s-4.52-23.57,2-33c-15.26,4-24.53,18.93-33.52,31.91S411.76,215.64,396.06,214c-14.86-1.53-25.19-14-26.82-28.81s3.21-21.29,7.18-35.69,7.1-29.94,2.2-44.06S361.55,81,349.52,72s-24.87-17.84-32.3-30.89S309.78,9.32,321.55,0c-30.28,16.79-49.78,51.37-48.48,86,.68,18,6.28,37.24-2,53.24-9.82,18.95-39.5,23.21-54.25,7.8s-9.2-44.88,10.16-53.86c-40.22,11.09-67.06,57.27-56.78,97.71,2.34,9.19,6.32,12.67,6.12,22.15s-6.52,14.35-16,14.7c-9,.33-15.8-8.24-19.29-16.57s-5.66-17.77-12.37-23.82-20.19-5.19-22.09,3.65c14.11,7.49,13.74,23.87,9.35,39.24s-10.35,21.18-14.85,31.2c-2.94,9.38-2.14,17.46.46,25.42A132.62,132.62,0,0,1,129.81,264.45Z"/><path class="cls-6" d="M224.8,10l2.48,8.32A26.59,26.59,0,0,0,245.16,36.2l8.33,2.48-8.33,2.48A26.57,26.57,0,0,0,227.28,59l-2.48,8.32L222.32,59a26.55,26.55,0,0,0-17.88-17.88l-8.33-2.48,8.33-2.48a26.57,26.57,0,0,0,17.88-17.89Z"/><path class="cls-7" d="M434.15,78.41l2.48,8.32a26.57,26.57,0,0,0,17.88,17.88l8.33,2.48-8.33,2.48a26.59,26.59,0,0,0-17.88,17.88l-2.48,8.33-2.48-8.33a26.57,26.57,0,0,0-17.88-17.88l-8.32-2.48,8.32-2.48a26.55,26.55,0,0,0,17.88-17.88Z"/></g></g></svg>